<?xml version="1.0" encoding="UTF-8"?>
<svg id="Capa_1" data-name="Capa 1" xmlns="http://www.w3.org/2000/svg" viewBox="0 0 604.55 527.54" fill="#5ef2c8">
  <path d="M266.81,111.87c.9-.89,1.44-3.35,1-4.15s-2.54-2.16-3.74-2.16H4.6c-2.17,0-4.55-1.78-4.55-3.8V3.83C.05,1.68,2.23,0,4.57,0h513.38c2.02,0,3.72.71,4.37,1.58s.39,4.24-.38,5.02l-142.08,142.41c-42.37,42.47-109.94,44.96-152.45,2.09l39.41-39.24Z"/>
  <path d="M604.49,425.41l.03,97.38c0,1.22-1.4,4.75-2.79,4.75H84.03c-1.15-.85-2.63-3.22-2.38-4.26s1.3-2.64,2.53-3.87l141.07-141.33c42.05-42.13,109.82-44.24,151.87-1.59l-39.66,39.48c-.35,1.39-.65,2.85-.67,3.77s2.55,2.29,3.68,2.29h260.33c1.07,0,3.7,2.1,3.7,3.37Z"/>
  <path d="M8.07,519.79c-1.58,1.57-3.82,2.52-5.14,2.23-1.2-.27-2.88-2.58-2.88-4.34l-.06-139.23,189.6-189.32c40.2,39.39,42.58,106.36,2.4,146.66l-108.67,109-75.26,75.01Z"/>
  <path d="M415.03,338.38c-40.64-39.49-42.33-106.79-2.05-147.12l95.32-95.45L597.31,6.96c.87-.87,3.21-1.56,4.23-1.42s2.94,2.23,2.94,3.4l.07,140.14-189.52,189.3Z"/>
</svg>